name Walk7.mot
datacolumns 19
datarows 25
range 1.82800000 1.85200000
endheader

                time	   L_ground_force_vx	   L_ground_force_vy	   L_ground_force_vz	   L_ground_force_px	   L_ground_force_py	   L_ground_force_pz	   R_ground_force_vx	   R_ground_force_vy	   R_ground_force_vz	   R_ground_force_px	   R_ground_force_py	   R_ground_force_pz	   L_ground_torque_x	   L_ground_torque_y	   L_ground_torque_z	   R_ground_torque_x	   R_ground_torque_y	   R_ground_torque_z	
          1.82800000	         -0.06224643	          0.57347757	         -0.06100936	          0.00054661	          0.00000000	          0.00028327	         18.29139817	        674.15689078	        -21.69174323	         -0.12071382	          0.00000000	          0.30533804	          0.00000000	         -0.00038778	          0.00000000	          0.00000000	          2.28303968	          0.00000000	
          1.82900000	         -0.06475743	          0.58110956	         -0.06089505	          0.00053891	          0.00000000	          0.00027822	         18.70747079	        676.54621993	        -21.79187279	         -0.12030009	          0.00000000	          0.30533787	          0.00000000	         -0.00040656	          0.00000000	          0.00000000	          2.26259527	          0.00000000	
          1.83000000	         -0.06723431	          0.58705082	         -0.06051863	          0.00052826	          0.00000000	          0.00027154	         19.13122553	        678.92952017	        -21.89436641	         -0.11988844	          0.00000000	          0.30533705	          0.00000000	         -0.00042541	          0.00000000	          0.00000000	          2.24166811	          0.00000000	
          1.83100000	         -0.06966369	          0.59111971	         -0.05985730	          0.00051445	          0.00000000	          0.00026313	         19.56286021	        681.30653165	        -21.99913137	         -0.11947897	          0.00000000	          0.30533555	          0.00000000	         -0.00044425	          0.00000000	          0.00000000	          2.22027907	          0.00000000	
          1.83200000	         -0.07203111	          0.59312542	         -0.05888730	          0.00049723	          0.00000000	          0.00025285	         20.00257599	        683.67701428	        -22.10605622	         -0.11907182	          0.00000000	          0.30533337	          0.00000000	         -0.00046300	          0.00000000	          0.00000000	          2.19845091	          0.00000000	
          1.83300000	         -0.07432104	          0.59286797	         -0.05758397	          0.00047636	          0.00000000	          0.00024056	         20.45057761	        686.04074558	        -22.21501103	         -0.11866710	          0.00000000	          0.30533048	          0.00000000	         -0.00048159	          0.00000000	          0.00000000	          2.17620850	          0.00000000	
          1.83400000	         -0.07651683	          0.59013810	         -0.05592171	          0.00045157	          0.00000000	          0.00022615	         20.90707379	        688.39751850	        -22.32584794	         -0.11826495	          0.00000000	          0.30532688	          0.00000000	         -0.00049991	          0.00000000	          0.00000000	          2.15357890	          0.00000000	
          1.83500000	         -0.07860065	          0.58471733	         -0.05387403	          0.00042262	          0.00000000	          0.00020945	         21.37227760	        690.74713951	        -22.43840202	         -0.11786548	          0.00000000	          0.30532255	          0.00000000	         -0.00051787	          0.00000000	          0.00000000	          2.13059139	          0.00000000	
          1.83600000	         -0.08055350	          0.57637802	         -0.05141358	          0.00038924	          0.00000000	          0.00019035	         21.84640680	        693.08942734	        -22.55249230	         -0.11746883	          0.00000000	          0.30531751	          0.00000000	         -0.00053537	          0.00000000	          0.00000000	          2.10727732	          0.00000000	
          1.83700000	         -0.08235514	          0.56488338	         -0.04851215	          0.00035114	          0.00000000	          0.00016868	         22.32968402	        695.42421228	        -22.66792262	         -0.11707513	          0.00000000	          0.30531174	          0.00000000	         -0.00055227	          0.00000000	          0.00000000	          2.08367007	          0.00000000	
          1.83800000	         -0.08398407	          0.54998769	         -0.04514076	          0.00030806	          0.00000000	          0.00014430	         22.82233681	        697.75133596	        -22.78448250	         -0.11668451	          0.00000000	          0.30530525	          0.00000000	         -0.00056847	          0.00000000	          0.00000000	          2.05980481	          0.00000000	
          1.83900000	         -0.08541753	          0.53143641	         -0.04126966	          0.00025970	          0.00000000	          0.00011706	         23.32459734	        700.07065120	        -22.90194775	         -0.11629711	          0.00000000	          0.30529804	          0.00000000	         -0.00058383	          0.00000000	          0.00000000	          2.03571823	          0.00000000	
          1.84000000	         -0.08663143	          0.50896648	         -0.03686839	          0.00020577	          0.00000000	          0.00008680	         23.83670179	        702.38202153	        -23.02008119	         -0.11591305	          0.00000000	          0.30529010	          0.00000000	         -0.00059820	          0.00000000	          0.00000000	          2.01144822	          0.00000000	
          1.84100000	         -0.08760034	          0.48230654	         -0.03190587	          0.00014598	          0.00000000	          0.00005338	         24.35888932	        704.68532007	        -23.13863360	         -0.11553247	          0.00000000	          0.30528142	          0.00000000	         -0.00061143	          0.00000000	          0.00000000	          1.98703351	          0.00000000	
          1.84200000	         -0.08829752	          0.45117733	         -0.02635044	          0.00008003	          0.00000000	          0.00001662	         24.89140081	        706.98042784	        -23.25734509	         -0.11515550	          0.00000000	          0.30527199	          0.00000000	         -0.00062337	          0.00000000	          0.00000000	          1.96251341	          0.00000000	
          1.84300000	         -0.08869481	          0.41529213	         -0.02016995	          0.00000763	          0.00000000	         -0.00002361	         25.43447734	        709.26723162	        -23.37594675	         -0.11478227	          0.00000000	          0.30526181	          0.00000000	         -0.00063385	          0.00000000	          0.00000000	          1.93792762	          0.00000000	
          1.84400000	         -0.08876272	          0.37435717	         -0.01333184	         -0.00007154	          0.00000000	         -0.00006749	         25.98835888	        711.54562147	        -23.49416249	         -0.11441293	          0.00000000	          0.30525084	          0.00000000	         -0.00064268	          0.00000000	          0.00000000	          1.91331607	          0.00000000	
          1.84500000	         -0.08847037	          0.32807227	         -0.00580323	         -0.00015776	          0.00000000	         -0.00011516	         26.55328309	        713.81548780	        -23.61171058	         -0.11404760	          0.00000000	          0.30523907	          0.00000000	         -0.00064968	          0.00000000	          0.00000000	          1.88871878	          0.00000000	
          1.84600000	         -0.08778547	          0.27613144	          0.00244893	         -0.00025135	          0.00000000	         -0.00016680	         27.12948445	        716.07671791	        -23.72830486	         -0.11368642	          0.00000000	          0.30522647	          0.00000000	         -0.00065464	          0.00000000	          0.00000000	          1.86417571	          0.00000000	
          1.84700000	         -0.08667438	          0.21822360	          0.01145782	         -0.00035260	          0.00000000	         -0.00022253	         27.71719332	        718.32919172	        -23.84365543	         -0.11332954	          0.00000000	          0.30521302	          0.00000000	         -0.00065736	          0.00000000	          0.00000000	          1.83972667	          0.00000000	
          1.84800000	         -0.08510208	          0.15403343	          0.02125654	         -0.00046180	          0.00000000	         -0.00028253	         28.31663500	        720.57277636	        -23.95746896	         -0.11297707	          0.00000000	          0.30519868	          0.00000000	         -0.00065762	          0.00000000	          0.00000000	          1.81541116	          0.00000000	
          1.84900000	         -0.08303221	          0.08324224	          0.03187802	         -0.00057924	          0.00000000	         -0.00034694	         28.92802874	        722.80732006	        -24.06944900	         -0.11262916	          0.00000000	          0.30518344	          0.00000000	         -0.00065519	          0.00000000	          0.00000000	          1.79126819	          0.00000000	
          1.85000000	         -0.08042709	          0.00552899	          0.04335484	         -0.00070520	          0.00000000	         -0.00041590	         29.55158669	        725.03264585	        -24.17929610	         -0.11228592	          0.00000000	          0.30516728	          0.00000000	         -0.00064983	          0.00000000	          0.00000000	          1.76733592	          0.00000000	
          1.85100000	         -0.07724773	         -0.07942859	          0.05571910	         -0.00083995	          0.00000000	         -0.00048956	         30.18751304	        727.24854617	        -24.28670801	         -0.11194746	          0.00000000	          0.30515019	          0.00000000	         -0.00064128	          0.00000000	          0.00000000	          1.74365112	          0.00000000	
          1.85200000	         -0.07345390	         -0.17195283	          0.06900219	         -0.00098375	          0.00000000	         -0.00056803	         30.83600297	        729.45477888	        -24.39137987	         -0.11161390	          0.00000000	          0.30513216	          0.00000000	         -0.00062930	          0.00000000	          0.00000000	          1.72024873	          0.00000000	
